<?xml version="1.0" standalone="no"?><!DOCTYPE svg PUBLIC "-//W3C//DTD SVG 1.1//EN" "http://www.w3.org/Graphics/SVG/1.1/DTD/svg11.dtd"><svg t="1598707879640" class="icon" viewBox="0 0 1024 1024" version="1.1" xmlns="http://www.w3.org/2000/svg" p-id="3660" xmlns:xlink="http://www.w3.org/1999/xlink" width="200" height="200"><defs><style type="text/css"></style></defs><path d="M786.222545 964.096c-13.242182 0-27.554909-3.979636-42.519273-11.869091l-155.345455-81.664c-36.258909-19.037091-104.773818-19.013818-141.032727 0l-155.298909 81.664c-33.745455 17.710545-65.768727 14.801455-83.642182-6.376727-8.797091-10.449455-18.059636-29.905455-12.311273-63.371636L225.745455 709.538909c7.284364-42.542545-12.637091-103.912727-43.543273-134.074182l-125.672727-122.484364C24.925091 422.190545 27.368727 395.636364 31.581091 382.533818c4.282182-13.102545 17.943273-36.002909 61.579636-42.356364l173.661091-25.227636c42.705455-6.213818 94.929455-44.148364 114.036364-82.874182l77.684364-157.370182c19.525818-39.563636 45.521455-45.474909 59.298909-45.474909S557.637818 35.141818 577.163636 74.705455l77.661091 157.370182c19.130182 38.702545 71.377455 76.660364 114.059636 82.874182l173.661091 25.227636c43.659636 6.330182 57.320727 29.253818 61.579636 42.356364 4.235636 13.102545 6.656 39.656727-24.925091 70.469818l-125.672727 122.484364c-30.906182 30.138182-50.850909 91.531636-43.543273 134.050909l29.649455 172.986182c5.725091 33.442909-3.537455 52.922182-12.334545 63.348364C817.361455 957.626182 802.769455 964.096 786.222545 964.096zM517.864727 812.986182c33.838545 0 65.908364 7.051636 90.298182 19.874909l155.345455 81.664c25.972364 13.637818 29.928727 5.352727 31.208727 3.886545 1.512727-1.815273 6.283636-9.239273 2.932364-28.672L768 716.730182c-9.704727-56.366545 14.801455-131.816727 55.761455-171.776l125.672727-122.507636c12.823273-12.474182 15.616-22.225455 14.126545-26.763636-1.466182-4.561455-9.472-10.775273-27.159273-13.358545l-173.661091-25.227636c-56.622545-8.215273-120.785455-54.853818-146.152727-106.170182l-77.661091-157.370182c-7.912727-16.011636-16.290909-21.713455-21.085091-21.713455s-13.172364 5.678545-21.085091 21.713455l-77.684364 157.370182c-25.320727 51.316364-89.530182 97.954909-146.129455 106.193455l-173.661091 25.227636c-17.687273 2.56-25.693091 8.797091-27.159273 13.358545-1.466182 4.538182 1.326545 14.289455 14.126545 26.763636l125.672727 122.484364c40.983273 39.959273 65.466182 115.409455 55.761455 171.799273l-29.626182 172.962909c-3.351273 19.432727 1.396364 26.88 2.932364 28.695273 1.233455 1.466182 5.329455 9.704727 31.208727-3.886545l155.298909-81.664C451.933091 820.037818 484.026182 812.986182 517.864727 812.986182z" p-id="3661" fill="#8a8a8a"></path></svg>